# xmcd CD database file
#
# Track frame offsets:
#	187
#	22170
#	53025
#	83110
#	122040
#	164510
#
# Disc length: 2455 seconds
#
# Revision: 1
# Processed by: cddbd v1.5.1PL2 Copyright (c) Steve Scherf et al.
# Submitted via: CDex 1.60beta1-cs1
#
DISCID=49099506
DTITLE=Benny Golson - Gone With Golson
DYEAR=1959
DGENRE=Jazz
TTITLE0=Staccato Swing
TTITLE1=Autumn Leaves
TTITLE2=Soul Me
TTITLE3=Blues After Dark
TTITLE4=Jam For Bobbie
TTITLE5=A Bit Of Heaven
EXTD=YEAR: 1959
EXTT0=
EXTT1=
EXTT2=
EXTT3=
EXTT4=
EXTT5=
PLAYORDER=
